HIERARCHY
ROOT __0
{
	OFFSET 0.0 0.0 0.0
	CHANNELS 0
	JOINT spider.body
	{
		OFFSET -0.000000 -0.024174 -0.001223
		CHANNELS 6 Xposition Yposition Zposition Zrotation Yrotation Xrotation
		JOINT Bone.401.R
		{
			OFFSET -0.036506 -0.002721 0.001566
			CHANNELS 6 Xposition Yposition Zposition Zrotation Yrotation Xrotation
			JOINT Bone.402.R
			{
				OFFSET -0.128547 0.119098 0.000000
				CHANNELS 3 Zrotation Yrotation Xrotation
				JOINT Bone.403.R
				{
					OFFSET -0.092430 0.086526 0.000000
					CHANNELS 3 Zrotation Yrotation Xrotation
					End Site
					{
						OFFSET -0.132475 0.126096 0.000000
					}
				}
			}
		}
		JOINT Bone.301.R
		{
			OFFSET -0.033945 -0.026202 0.001566
			CHANNELS 6 Xposition Yposition Zposition Zrotation Yrotation Xrotation
			JOINT Bone.302.R
			{
				OFFSET -0.112551 0.040759 0.000000
				CHANNELS 3 Zrotation Yrotation Xrotation
				JOINT Bone.303.R
				{
					OFFSET -0.105146 0.041271 0.000000
					CHANNELS 3 Zrotation Yrotation Xrotation
					End Site
					{
						OFFSET -0.111726 0.043966 0.000000
					}
				}
			}
		}
		JOINT Bone.201.R
		{
			OFFSET -0.043952 -0.045754 0.001566
			CHANNELS 6 Xposition Yposition Zposition Zrotation Yrotation Xrotation
			JOINT Bone.202.R
			{
				OFFSET -0.110887 -0.016888 0.000000
				CHANNELS 3 Zrotation Yrotation Xrotation
				JOINT Bone.203.R
				{
					OFFSET -0.090207 -0.014155 0.000000
					CHANNELS 3 Zrotation Yrotation Xrotation
					End Site
					{
						OFFSET -0.126114 -0.017918 0.000000
					}
				}
			}
		}
		JOINT Bone.101.R
		{
			OFFSET -0.047210 -0.064721 0.001566
			CHANNELS 6 Xposition Yposition Zposition Zrotation Yrotation Xrotation
			JOINT Bone.102.R
			{
				OFFSET -0.056300 -0.129128 0.000000
				CHANNELS 3 Zrotation Yrotation Xrotation
				JOINT Bone.103.R
				{
					OFFSET -0.038596 -0.100772 0.000000
					CHANNELS 3 Zrotation Yrotation Xrotation
					End Site
					{
						OFFSET -0.057992 -0.137053 0.000000
					}
				}
			}
		}
		JOINT spider.too.R
		{
			OFFSET -0.015977 -0.078602 0.000000
			CHANNELS 6 Xposition Yposition Zposition Zrotation Yrotation Xrotation
			End Site
			{
				OFFSET -0.009129 -0.040940 -0.032086
			}
		}
		JOINT spider.too.L
		{
			OFFSET 0.015977 -0.078602 0.000000
			CHANNELS 6 Xposition Yposition Zposition Zrotation Yrotation Xrotation
			End Site
			{
				OFFSET 0.009129 -0.040940 -0.032086
			}
		}
		JOINT Bone.401.L
		{
			OFFSET 0.036506 -0.002721 0.001566
			CHANNELS 6 Xposition Yposition Zposition Zrotation Yrotation Xrotation
			JOINT Bone.402.L
			{
				OFFSET 0.128547 0.119098 0.000000
				CHANNELS 3 Zrotation Yrotation Xrotation
				JOINT Bone.403.L
				{
					OFFSET 0.092430 0.086526 0.000000
					CHANNELS 3 Zrotation Yrotation Xrotation
					End Site
					{
						OFFSET 0.132475 0.126096 0.000000
					}
				}
			}
		}
		JOINT Bone.301.L
		{
			OFFSET 0.033945 -0.026202 0.001566
			CHANNELS 6 Xposition Yposition Zposition Zrotation Yrotation Xrotation
			JOINT Bone.302.L
			{
				OFFSET 0.112551 0.040759 0.000000
				CHANNELS 3 Zrotation Yrotation Xrotation
				JOINT Bone.303.L
				{
					OFFSET 0.105146 0.041271 0.000000
					CHANNELS 3 Zrotation Yrotation Xrotation
					End Site
					{
						OFFSET 0.111726 0.043966 0.000000
					}
				}
			}
		}
		JOINT Bone.201.L
		{
			OFFSET 0.043952 -0.045754 0.001566
			CHANNELS 6 Xposition Yposition Zposition Zrotation Yrotation Xrotation
			JOINT Bone.202.L
			{
				OFFSET 0.110887 -0.016888 0.000000
				CHANNELS 3 Zrotation Yrotation Xrotation
				JOINT Bone.203.L
				{
					OFFSET 0.090207 -0.014155 0.000000
					CHANNELS 3 Zrotation Yrotation Xrotation
					End Site
					{
						OFFSET 0.126114 -0.017918 0.000000
					}
				}
			}
		}
		JOINT Bone.101.L
		{
			OFFSET 0.047211 -0.064721 0.001566
			CHANNELS 6 Xposition Yposition Zposition Zrotation Yrotation Xrotation
			JOINT Bone.102.L
			{
				OFFSET 0.056300 -0.129128 0.000000
				CHANNELS 3 Zrotation Yrotation Xrotation
				JOINT Bone.103.L
				{
					OFFSET 0.038596 -0.100772 0.000000
					CHANNELS 3 Zrotation Yrotation Xrotation
					End Site
					{
						OFFSET 0.057992 -0.137053 0.000000
					}
				}
			}
		}
		JOINT spider.tail
		{
			OFFSET 0.000000 0.000000 0.000000
			CHANNELS 6 Xposition Yposition Zposition Zrotation Yrotation Xrotation
			End Site
			{
				OFFSET 0.000000 0.096031 0.000000
			}
		}
	}
	JOINT Bone.1tg.L
	{
		OFFSET 0.200098 -0.455849 0.000342
		CHANNELS 6 Xposition Yposition Zposition Zrotation Yrotation Xrotation
		End Site
		{
			OFFSET 0.019417 -0.050483 0.000000
		}
	}
	JOINT Bone.1tg.R
	{
		OFFSET -0.200098 -0.455849 0.000342
		CHANNELS 6 Xposition Yposition Zposition Zrotation Yrotation Xrotation
		End Site
		{
			OFFSET -0.019417 -0.050483 0.000000
		}
	}
	JOINT Bone.2tg.L
	{
		OFFSET 0.371161 -0.118890 0.000342
		CHANNELS 6 Xposition Yposition Zposition Zrotation Yrotation Xrotation
		End Site
		{
			OFFSET 0.046600 -0.007767 0.000000
		}
	}
	JOINT Bone.2tg.R
	{
		OFFSET -0.371161 -0.118890 0.000342
		CHANNELS 6 Xposition Yposition Zposition Zrotation Yrotation Xrotation
		End Site
		{
			OFFSET -0.046600 -0.007767 0.000000
		}
	}
	JOINT Bone.3tg.L
	{
		OFFSET 0.363367 0.075620 0.000342
		CHANNELS 6 Xposition Yposition Zposition Zrotation Yrotation Xrotation
		End Site
		{
			OFFSET 0.052425 0.021358 0.000000
		}
	}
	JOINT Bone.3tg.R
	{
		OFFSET -0.363367 0.075620 0.000342
		CHANNELS 6 Xposition Yposition Zposition Zrotation Yrotation Xrotation
		End Site
		{
			OFFSET -0.052425 0.021358 0.000000
		}
	}
	JOINT Bone.4tg.L
	{
		OFFSET 0.389958 0.304826 0.000342
		CHANNELS 6 Xposition Yposition Zposition Zrotation Yrotation Xrotation
		End Site
		{
			OFFSET 0.040853 0.035531 0.000000
		}
	}
	JOINT Bone.4tg.R
	{
		OFFSET -0.389958 0.304826 0.000342
		CHANNELS 6 Xposition Yposition Zposition Zrotation Yrotation Xrotation
		End Site
		{
			OFFSET -0.040853 0.035531 0.000000
		}
	}
	JOINT Bone.4pl.L
	{
		OFFSET 0.072792 -0.016441 0.200946
		CHANNELS 6 Xposition Yposition Zposition Zrotation Yrotation Xrotation
		End Site
		{
			OFFSET 0.000000 0.000000 0.023280
		}
	}
	JOINT Bone.4pl.R
	{
		OFFSET -0.072792 -0.016441 0.200946
		CHANNELS 6 Xposition Yposition Zposition Zrotation Yrotation Xrotation
		End Site
		{
			OFFSET 0.000000 0.000000 0.023280
		}
	}
	JOINT Bone.3pl.L
	{
		OFFSET 0.080552 -0.033891 0.200946
		CHANNELS 6 Xposition Yposition Zposition Zrotation Yrotation Xrotation
		End Site
		{
			OFFSET 0.000000 0.000000 0.023280
		}
	}
	JOINT Bone.3pl.R
	{
		OFFSET -0.080552 -0.033891 0.200946
		CHANNELS 6 Xposition Yposition Zposition Zrotation Yrotation Xrotation
		End Site
		{
			OFFSET 0.000000 0.000000 0.023280
		}
	}
	JOINT Bone.2pl.L
	{
		OFFSET 0.084345 -0.075934 0.200946
		CHANNELS 6 Xposition Yposition Zposition Zrotation Yrotation Xrotation
		End Site
		{
			OFFSET 0.000000 0.000000 0.023280
		}
	}
	JOINT Bone.2pl.R
	{
		OFFSET -0.084345 -0.075934 0.200946
		CHANNELS 6 Xposition Yposition Zposition Zrotation Yrotation Xrotation
		End Site
		{
			OFFSET 0.000000 0.000000 0.023280
		}
	}
	JOINT Bone.1pl.L
	{
		OFFSET 0.077155 -0.105007 0.200946
		CHANNELS 6 Xposition Yposition Zposition Zrotation Yrotation Xrotation
		End Site
		{
			OFFSET 0.000000 0.000000 0.023280
		}
	}
	JOINT Bone.1pl.R
	{
		OFFSET -0.077155 -0.105007 0.200946
		CHANNELS 6 Xposition Yposition Zposition Zrotation Yrotation Xrotation
		End Site
		{
			OFFSET 0.000000 0.000000 0.023280
		}
	}
}
MOTION
Frames: 5
Frame Time: 0.041667
-0.000000 -0.024174 0.058777 0.000000 -0.000000 0.000000 -0.036506 -0.002721 0.001565 19.401072 78.800473 -7.432467 -48.061012 0.000001 -0.000000 -76.459576 -0.000000 -0.000001 -0.033945 -0.026202 0.001565 -19.826755 58.255223 -89.461367 -46.172034 0.000002 -0.000000 -65.729841 0.000000 0.000000 -0.043952 -0.045754 0.001565 9.020093 25.791783 -90.211158 -35.557073 0.000000 0.000001 -71.957716 0.000000 -0.000001 -0.047210 -0.064721 0.001565 -28.566592 80.981455 -7.355785 39.593821 0.000002 -0.000002 19.308462 -0.000002 0.000001 -0.006017 -0.081963 -0.000000 17.377963 -0.000002 -0.000002 0.006017 -0.081963 -0.000000 -17.377960 0.000001 -0.000001 0.036506 -0.002721 0.001565 43.257074 -61.770837 -64.947374 23.734303 0.000001 -0.000000 37.217721 0.000002 -0.000002 0.033945 -0.026202 0.001565 14.357165 -64.647030 -105.692533 48.394383 -0.000000 0.000000 69.350531 -0.000000 0.000000 0.043952 -0.045754 0.001565 -33.504393 -26.647969 -99.006679 26.224026 -0.000003 0.000000 54.192767 0.000002 0.000000 0.047210 -0.064721 0.001565 46.835994 -57.630001 -42.161043 -38.614505 -0.000000 -0.000002 -18.321356 -0.000002 -0.000000 0.000000 0.000000 0.000000 0.000000 -0.000000 0.000000 0.079676 -0.439291 0.137650 0.000000 -0.000000 0.000000 -0.165953 -0.421512 0.002634 0.000000 -0.000000 0.000000 0.257618 -0.236088 0.050308 0.000001 -0.000000 0.000000 -0.260798 -0.104910 0.000240 -0.000001 -0.000000 0.000000 0.263946 -0.054368 0.022272 0.000000 -0.000000 0.000000 -0.255322 0.031764 0.000240 0.000000 -0.000000 0.000000 0.202216 0.368888 0.000240 20.160654 -0.000000 0.000000 -0.154047 0.229604 0.001229 -20.160654 -0.000000 0.000000 0.072792 -0.016441 0.200946 0.000000 -0.000000 0.000000 -0.072792 -0.016441 0.200946 0.000000 -0.000000 0.000000 0.080552 -0.033891 0.200946 0.000000 -0.000000 0.000000 -0.080552 -0.033891 0.200946 0.000000 -0.000000 0.000000 0.084345 -0.075934 0.200946 0.000000 -0.000000 0.000000 -0.084345 -0.075934 0.200946 0.000000 -0.000000 0.000000 0.091107 -0.258769 0.162945 0.000000 -0.000000 0.000000 -0.077155 -0.105007 0.200946 0.000000 -0.000000 0.000000 
-0.000000 -0.024174 0.058777 0.000000 -0.000000 0.000000 -0.036506 -0.002721 0.001565 5.186161 77.997536 -20.740380 -44.620366 0.000004 0.000002 -70.812703 0.000003 0.000000 -0.033945 -0.026202 0.001565 -19.826755 58.255223 -89.461367 -46.172034 0.000002 -0.000000 -65.729841 0.000000 0.000000 -0.043952 -0.045754 0.001565 9.020093 25.791783 -90.211158 -35.557073 0.000000 0.000001 -71.957716 0.000000 -0.000001 -0.047210 -0.064721 0.001565 -30.191553 80.955097 -8.911773 39.914540 -0.000001 -0.000001 19.633579 0.000003 -0.000002 -0.006017 -0.081963 -0.000000 17.377963 -0.000002 -0.000002 0.006017 -0.081963 -0.000000 -17.377960 0.000001 -0.000001 0.036506 -0.002721 0.001565 43.257074 -61.770837 -64.947374 23.734303 0.000001 -0.000000 37.217721 0.000002 -0.000002 0.033945 -0.026202 0.001565 15.072264 -64.107459 -102.554300 48.518320 0.000000 -0.000000 69.551912 -0.000000 -0.000000 0.043952 -0.045754 0.001565 -29.498149 -28.476894 -97.917995 29.127475 -0.000003 -0.000000 59.708059 -0.000001 -0.000003 0.047210 -0.064721 0.001565 63.605467 -64.705339 -55.367600 -41.221650 -0.000000 -0.000000 -20.967885 -0.000002 0.000002 0.000000 0.000000 0.000000 0.000000 -0.000000 0.000000 0.094556 -0.435291 0.113814 0.000000 -0.000000 0.000000 -0.165866 -0.420596 0.002219 0.000000 -0.000000 0.000000 0.258169 -0.213333 0.041623 0.000001 -0.000000 0.000000 -0.260798 -0.104910 0.000240 -0.000001 -0.000000 0.000000 0.262450 -0.039427 0.018450 0.000000 -0.000000 0.000000 -0.255322 0.031764 0.000240 0.000000 -0.000000 0.000000 0.202216 0.368888 0.000240 20.160654 -0.000000 0.000000 -0.162403 0.253765 0.001057 -20.160654 -0.000000 0.000000 0.072792 -0.016441 0.200946 0.000000 -0.000000 0.000000 -0.072792 -0.016441 0.200946 0.000000 -0.000000 0.000000 0.080552 -0.033891 0.200946 0.000000 -0.000000 0.000000 -0.080552 -0.033891 0.200946 0.000000 -0.000000 0.000000 0.084345 -0.075934 0.200946 0.000000 -0.000000 0.000000 -0.084345 -0.075934 0.200946 0.000000 -0.000000 0.000000 0.088687 -0.232096 0.169537 0.000000 -0.000000 0.000000 -0.077155 -0.105007 0.200946 0.000000 -0.000000 0.000000 
-0.000000 -0.024174 0.058777 0.000000 -0.000000 0.000000 -0.036506 -0.002721 0.001565 -9.603555 76.213027 -34.588802 -40.678824 -0.000001 0.000001 -64.319789 -0.000001 0.000002 -0.033945 -0.026202 0.001565 -19.826755 58.255223 -89.461367 -46.172034 0.000002 -0.000000 -65.729841 0.000000 0.000000 -0.043952 -0.045754 0.001565 9.020093 25.791783 -90.211158 -35.557073 0.000000 0.000001 -71.957716 0.000000 -0.000001 -0.047210 -0.064721 0.001565 -32.001250 80.917319 -10.645542 40.270645 0.000002 -0.000001 19.995546 -0.000000 0.000001 -0.006017 -0.081963 -0.000000 17.377963 -0.000002 -0.000002 0.006017 -0.081963 -0.000000 -17.377960 0.000001 -0.000001 0.036506 -0.002721 0.001565 43.257074 -61.770837 -64.947374 23.734303 0.000001 -0.000000 37.217721 0.000002 -0.000002 0.033945 -0.026202 0.001565 15.872154 -63.235927 -99.170795 48.408481 0.000001 0.000000 69.373453 -0.000000 0.000001 0.043952 -0.045754 0.001565 -25.085789 -29.394552 -96.454483 31.622943 0.000001 -0.000002 64.485373 -0.000001 0.000002 0.047210 -0.064721 0.001565 74.487755 -69.224268 -63.179748 -42.945515 -0.000000 0.000000 -22.750909 -0.000001 0.000000 0.000000 0.000000 0.000000 0.000000 -0.000000 0.000000 0.110748 -0.430937 0.087874 0.000000 -0.000000 0.000000 -0.165771 -0.419599 0.001767 0.000000 -0.000000 0.000000 0.258770 -0.188569 0.032171 0.000001 -0.000000 0.000000 -0.260798 -0.104910 0.000240 -0.000001 -0.000000 0.000000 0.260822 -0.023167 0.014291 0.000000 -0.000000 0.000000 -0.255322 0.031764 0.000240 0.000000 -0.000000 0.000000 0.202216 0.368888 0.000240 20.160654 -0.000000 0.000000 -0.171496 0.280059 0.000871 -20.160654 -0.000000 0.000000 0.072792 -0.016441 0.200946 0.000000 -0.000000 0.000000 -0.072792 -0.016441 0.200946 0.000000 -0.000000 0.000000 0.080552 -0.033891 0.200946 0.000000 -0.000000 0.000000 -0.080552 -0.033891 0.200946 0.000000 -0.000000 0.000000 0.084345 -0.075934 0.200946 0.000000 -0.000000 0.000000 -0.084345 -0.075934 0.200946 0.000000 -0.000000 0.000000 0.086053 -0.203069 0.176711 0.000000 -0.000000 0.000000 -0.077155 -0.105007 0.200946 0.000000 -0.000000 0.000000 
-0.000000 -0.024174 0.058777 0.000000 -0.000000 0.000000 -0.036506 -0.002721 0.001565 -22.291362 73.362427 -46.349343 -36.373414 0.000001 0.000002 -57.361479 -0.000002 -0.000000 -0.033945 -0.026202 0.001565 -19.826755 58.255223 -89.461367 -46.172034 0.000002 -0.000000 -65.729841 0.000000 0.000000 -0.043952 -0.045754 0.001565 9.020093 25.791783 -90.211158 -35.557073 0.000000 0.000001 -71.957716 0.000000 -0.000001 -0.047210 -0.064721 0.001565 -33.696431 80.874699 -12.265814 40.612175 0.000002 -0.000001 20.343877 -0.000002 0.000001 -0.006017 -0.081963 -0.000000 17.377963 -0.000002 -0.000002 0.006017 -0.081963 -0.000000 -17.377960 0.000001 -0.000001 0.036506 -0.002721 0.001565 43.257074 -61.770837 -64.947374 23.734303 0.000001 -0.000000 37.217721 0.000002 -0.000002 0.033945 -0.026202 0.001565 16.794701 -62.077171 -95.951099 48.044435 -0.000000 -0.000000 68.781412 0.000000 0.000001 0.043952 -0.045754 0.001565 -20.554437 -29.319851 -94.747947 33.500606 0.000001 0.000001 68.062022 -0.000001 -0.000001 0.047210 -0.064721 0.001565 78.236668 -73.244715 -64.019971 -43.653030 0.000001 0.000001 -23.490177 0.000002 -0.000001 0.000000 0.000000 0.000000 0.000000 -0.000000 0.000000 0.126940 -0.426584 0.061934 0.000000 -0.000000 0.000000 -0.165676 -0.418602 0.001315 0.000000 -0.000000 0.000000 0.259370 -0.163806 0.022720 0.000001 -0.000000 0.000000 -0.260798 -0.104910 0.000240 -0.000001 -0.000000 0.000000 0.259194 -0.006908 0.010132 0.000000 -0.000000 0.000000 -0.255322 0.031764 0.000240 0.000000 -0.000000 0.000000 0.202216 0.368888 0.000240 20.160654 -0.000000 0.000000 -0.180589 0.306352 0.000684 -20.160654 -0.000000 0.000000 0.072792 -0.016441 0.200946 0.000000 -0.000000 0.000000 -0.072792 -0.016441 0.200946 0.000000 -0.000000 0.000000 0.080552 -0.033891 0.200946 0.000000 -0.000000 0.000000 -0.080552 -0.033891 0.200946 0.000000 -0.000000 0.000000 0.084345 -0.075934 0.200946 0.000000 -0.000000 0.000000 -0.084345 -0.075934 0.200946 0.000000 -0.000000 0.000000 0.083419 -0.174043 0.183884 0.000000 -0.000000 0.000000 -0.077155 -0.105007 0.200946 0.000000 -0.000000 0.000000 
-0.000000 -0.024174 0.058777 0.000000 -0.000000 0.000000 -0.036506 -0.002721 0.001565 -31.705663 69.777206 -54.898369 -32.023451 -0.000001 -0.000001 -50.355061 -0.000003 0.000002 -0.033945 -0.026202 0.001565 -19.826755 58.255223 -89.461367 -46.172034 0.000002 -0.000000 -65.729841 0.000000 0.000000 -0.043952 -0.045754 0.001565 9.020093 25.791783 -90.211158 -35.557073 0.000000 0.000001 -71.957716 0.000000 -0.000001 -0.047210 -0.064721 0.001565 -35.215984 80.830091 -13.716673 40.922231 0.000001 -0.000001 20.661001 0.000002 -0.000001 -0.006017 -0.081963 -0.000000 17.377963 -0.000002 -0.000002 0.006017 -0.081963 -0.000000 -17.377960 0.000001 -0.000001 0.036506 -0.002721 0.001565 43.257074 -61.770837 -64.947374 23.734303 0.000001 -0.000000 37.217721 0.000002 -0.000002 0.033945 -0.026202 0.001565 17.811947 -60.771478 -93.223585 47.487676 0.000002 0.000001 67.875073 -0.000001 -0.000000 0.043952 -0.045754 0.001565 -16.236985 -28.471123 -93.033501 34.698604 0.000001 -0.000000 70.334645 -0.000000 0.000001 0.047210 -0.064721 0.001565 74.014908 -77.000520 -57.057426 -43.450996 -0.000002 -0.000002 -23.278627 -0.000001 -0.000001 0.000000 0.000000 0.000000 0.000000 -0.000000 0.000000 0.141820 -0.422584 0.038098 0.000000 -0.000000 0.000000 -0.165590 -0.417685 0.000900 0.000000 -0.000000 0.000000 0.259922 -0.141051 0.014034 0.000001 -0.000000 0.000000 -0.260798 -0.104910 0.000240 -0.000001 -0.000000 0.000000 0.257698 0.008034 0.006310 0.000000 -0.000000 0.000000 -0.255322 0.031764 0.000240 0.000000 -0.000000 0.000000 0.202216 0.368888 0.000240 20.160654 -0.000000 0.000000 -0.188945 0.330514 0.000513 -20.160654 -0.000000 0.000000 0.072792 -0.016441 0.200946 0.000000 -0.000000 0.000000 -0.072792 -0.016441 0.200946 0.000000 -0.000000 0.000000 0.080552 -0.033891 0.200946 0.000000 -0.000000 0.000000 -0.080552 -0.033891 0.200946 0.000000 -0.000000 0.000000 0.084345 -0.075934 0.200946 0.000000 -0.000000 0.000000 -0.084345 -0.075934 0.200946 0.000000 -0.000000 0.000000 0.080999 -0.147370 0.190476 0.000000 -0.000000 0.000000 -0.077155 -0.105007 0.200946 0.000000 -0.000000 0.000000 
